IKResults
version=1
nRows=12
nColumns=55
inDegrees=yes

Units are S.I. units (second, meters, Newtons, ...)
If the header above contains a line with 'inDegrees', this indicates whether rotational values are in degrees (yes) or radians (no).

endheader
time	pelvis_tilt	pelvis_list	pelvis_rotation	pelvis_tx	pelvis_ty	pelvis_tz	hip_flexion_r	hip_adduction_r	hip_rotation_r	hip_flexion_l	hip_adduction_l	hip_rotation_l	flex_extension	lat_bending	axial_rotation	L4_L5_IVDjnt_r3	L4_L5_IVD_bendjnt_r1	L4_L5_IVD_rotjnt_r2	L3_L4_IVDjnt_r3	L3_L4_IVD_bendjnt_r1	L3_L4_IVD_rotjnt_r2	L2_L3_IVDjnt_r3	L2_L3_IVD_bendjnt_r1	L2_L3_IVD_rotjnt_r2	L1_L2_IVDjnt_r3	L1_L2_IVD_bendjnt_r1	L1_L2_IVD_rotjnt_r2	Torso_Rot	Abs_r3	Abs_t1	Abs_t2	LB_wrapjnt_r3	LB_wrapjnt_t1	LB_wrapjnt_t2	SC_y	SC_x	SC_z	SC_y_l	SC_x_l	SC_z_l	arm_flex_r	arm_add_r	arm_rot_r	elbow_flex_r	pro_sup_r	wrist_flex_r	wrist_dev_r	arm_flex_l	arm_add_l	arm_rot_l	elbow_flex_l	pro_sup_l	wrist_flex_l	wrist_dev_l
     10.00000000	     -8.16252912	    -67.55390355	     89.97169146	      0.70522692	      0.84991778	     -0.30110648	      0.00000000	     -0.00000000	      0.00000000	      0.00000000	     -0.00000000	      0.00000000	      1.39297780	     -0.43591441	      0.97829211	     11.49289185	     -4.52280519	      2.36664403	     16.34105654	     -6.12740187	      2.36664403	     19.68301390	     -6.24721339	      1.86839792	      0.40978900	     -4.69397852	      1.61928201	     11.52678993	     51.30756223	      0.00000000	      0.00000000	     47.88704937	      0.04604520	      0.01534840	     29.94340679	     -4.74552922	     34.42685934	     29.94056481	    -21.15368370	     -7.65586594	     17.15965930	    -11.88714472	     74.64641985	    108.88239795	     83.22488683	     14.12255260	     27.21242993	    -42.15799954	    -38.19664484	      5.86037697	    133.34404624	     86.76901621	     14.38787349	     16.73815727
     10.01000000	     -8.13180887	    -67.59108983	     89.97151934	      0.70565172	      0.84988480	     -0.30097487	      0.00000000	     -0.00000000	      0.00000000	      0.00000000	     -0.00000000	      0.00000000	      1.39372723	     -0.43591417	      0.97828918	     11.49907511	     -4.52280266	      2.36663694	     16.34984814	     -6.12739844	      2.36663694	     19.69360350	     -6.24720990	      1.86839233	      0.41000946	     -4.69397589	      1.61927716	     11.52675540	     51.33516606	      0.00000000	      0.00000000	     47.91281294	      0.04606997	      0.01535666	     29.94366157	     -4.61997696	     34.41469753	     29.93972855	    -20.77297145	     -7.67251232	     16.70858221	    -11.70849482	     75.29421861	    107.86626413	     83.26024634	     14.14301422	     27.24991586	    -42.11247398	    -38.16443564	      6.11176123	    132.26396161	     86.77914843	     14.37450194	     16.78236376
     10.02000000	     -8.11362580	    -67.51892614	     89.97171095	      0.70608105	      0.84953715	     -0.30086183	      0.00000000	     -0.00000000	      0.00000000	      0.00000000	     -0.00000000	      0.00000000	      1.39193738	     -0.43591497	      0.97829325	     11.48430779	     -4.52281096	      2.36664678	     16.32885138	     -6.12740969	      2.36664678	     19.66831263	     -6.24722136	      1.86840009	      0.40948292	     -4.69398450	      1.61928389	     11.52680331	     51.26924052	      0.00000000	      0.00000000	     47.85128245	      0.04601081	      0.01533694	     29.94396331	     -4.57508682	     34.39264462	     29.94021931	    -20.78594661	     -7.65480676	     16.33645133	    -11.48233831	     75.94637868	    106.79846179	     83.44247987	     14.13057536	     27.16316819	    -41.56022034	    -37.74026876	      6.94731248	    130.97253779	     86.79406067	     14.43041174	     16.79832555
     10.03000000	     -8.09615625	    -67.49186703	     89.97176662	      0.70643987	      0.84934333	     -0.30083041	      0.00000000	     -0.00000000	      0.00000000	      0.00000000	     -0.00000000	      0.00000000	      1.39138992	     -0.43591511	      0.97829390	     11.47979090	     -4.52281241	      2.36664836	     16.32242908	     -6.12741165	      2.36664836	     19.66057689	     -6.24722336	      1.86840134	      0.40932187	     -4.69398601	      1.61928497	     11.52681102	     51.24907583	      0.00000000	      0.00000000	     47.83246208	      0.04599271	      0.01533090	     29.94411007	     -4.51341202	     34.37734437	     29.94019634	    -20.59538797	     -7.61907311	     15.90071310	    -11.19823978	     76.65077297	    105.60581298	     83.72483116	     14.06936656	     27.00113716	    -41.19101039	    -37.48007229	      7.45462795	    129.73516101	     86.89286779	     14.46867152	     16.78162265
     10.04000000	     -8.06539156	    -67.54524350	     89.97166436	      0.70682664	      0.84935210	     -0.30058466	      0.00000000	     -0.00000000	      0.00000000	      0.00000000	     -0.00000000	      0.00000000	      1.39227416	     -0.43591548	      0.97829245	     11.48708641	     -4.52281628	      2.36664485	     16.33280213	     -6.12741690	      2.36664485	     19.67307136	     -6.24722871	      1.86839857	      0.40958200	     -4.69399003	      1.61928257	     11.52679391	     51.28164509	      0.00000000	      0.00000000	     47.86286004	      0.04602194	      0.01534065	     29.94503379	     -4.31438840	     34.34435272	     29.93889119	    -20.11771234	     -7.64607468	     15.42022146	    -11.03962886	     77.26854805	    104.48747722	     83.79055479	     14.07989559	     27.01838076	    -41.12407723	    -37.42265173	      7.58281612	    128.50698706	     86.93367256	     14.44826346	     16.83224143
     10.05000000	     -7.92672063	    -67.60201999	     89.97158776	      0.70844745	      0.84896503	     -0.29990025	      0.00000000	     -0.00000000	      0.00000000	      0.00000000	     -0.00000000	      0.00000000	      1.39236211	     -0.43591566	      0.97829481	     11.48781202	     -4.52281816	      2.36665055	     16.33383383	     -6.12741944	      2.36665055	     19.67431406	     -6.24723130	      1.86840307	      0.40960787	     -4.69399197	      1.61928647	     11.52682169	     51.28488441	      0.00000000	      0.00000000	     47.86588341	      0.04602485	      0.01534162	     29.94468793	     -4.41872518	     34.37433148	     29.93962194	    -20.23186066	     -7.68169841	     15.13910165	    -10.60607810	     77.97750694	    103.11630748	     84.10784207	     13.97690544	     26.79272816	    -40.28525610	    -37.00602206	      8.82629307	    126.88450755	     87.17015789	     14.37579777	     16.68606058
     10.06000000	     -7.87794244	    -67.65501406	     89.97155587	      0.70900978	      0.84887242	     -0.29971875	      0.00000000	     -0.00000000	      0.00000000	      0.00000000	     -0.00000000	      0.00000000	      1.39365198	     -0.43591467	      0.97829283	     11.49845425	     -4.52280783	      2.36664578	     16.34896539	     -6.12740544	      2.36664578	     19.69254021	     -6.24721703	      1.86839930	      0.40998733	     -4.69398125	      1.61928320	     11.52679844	     51.33239439	      0.00000000	      0.00000000	     47.91022605	      0.04606748	      0.01535583	     29.94472980	     -4.31201245	     34.37568111	     29.93914290	    -20.05874500	     -7.65095953	     14.67702160	    -10.30130075	     78.65908082	    101.78580645	     84.32886885	     13.89800586	     26.62133918	    -39.83850869	    -36.75982489	      9.58338937	    125.32174233	     87.25281576	     14.22133723	     16.53391555
     10.07000000	     -7.83313067	    -67.72217662	     89.97153303	      0.70944517	      0.84877946	     -0.29950705	      0.00000000	     -0.00000000	      0.00000000	      0.00000000	     -0.00000000	      0.00000000	      1.39520964	     -0.43591529	      0.97829372	     11.51130586	     -4.52281436	      2.36664794	     16.36723833	     -6.12741429	      2.36664794	     19.71455021	     -6.24722605	      1.86840101	      0.41044556	     -4.69398803	      1.61928468	     11.52680894	     51.38976767	      0.00000000	      0.00000000	     47.96377444	      0.04611897	      0.01537299	     29.94498956	     -4.16332612	     34.36838407	     29.93897518	    -19.90530917	     -7.57581929	     14.15614516	    -10.02613914	     79.30921083	    100.46586630	     84.57550557	     13.79525971	     26.40106466	    -39.29537783	    -36.48961513	     10.38004733	    123.68660610	     87.31272984	     13.99584781	     16.30680546
     10.08000000	     -7.73184165	    -68.05258991	     89.97094610	      0.71004911	      0.84892582	     -0.29899179	      0.00000000	     -0.00000000	      0.00000000	      0.00000000	     -0.00000000	      0.00000000	      1.40270708	     -0.43591703	      0.97829139	     11.57316419	     -4.52283235	      2.36664228	     16.45519099	     -6.12743866	      2.36664228	     19.82049033	     -6.24725090	      1.86839654	      0.41265118	     -4.69400670	      1.61928081	     11.52678141	     51.66592097	      0.00000000	      0.00000000	     48.22151747	      0.04636680	      0.01545560	     29.94517966	     -3.97528080	     34.37696149	     29.93844852	    -19.86059473	     -7.44916092	     13.53858177	     -9.76392199	     79.97633974	     99.09272864	     85.12691095	     12.93138147	     24.86664467	    -38.66643368	    -36.15644007	     11.41397716	    121.89056505	     87.25990132	     11.85575164	     14.23956118
     10.09000000	     -7.68292722	    -68.03761251	     89.97107816	      0.71064568	      0.84877043	     -0.29892519	      0.00000000	     -0.00000000	      0.00000000	      0.00000000	     -0.00000000	      0.00000000	      1.40237264	     -0.43591750	      0.97829434	     11.57040480	     -4.52283725	      2.36664943	     16.45126758	     -6.12744530	      2.36664943	     19.81576452	     -6.24725766	      1.86840219	      0.41255279	     -4.69401178	      1.61928570	     11.52681622	     51.65360226	      0.00000000	      0.00000000	     48.21002000	      0.04635575	      0.01545192	     29.94571725	     -3.74929015	     34.36587441	     29.93829396	    -19.56323586	     -7.44530926	     13.15109298	     -9.45263984	     80.77381223	     97.61420232	     85.05822264	     12.96570154	     24.85604692	    -38.27094313	    -35.97283797	     11.95552035	    120.36870201	     87.23514479	     11.82784594	     14.24500540
     10.10000000	     -7.71596825	    -68.02462400	     89.97112079	      0.71016846	      0.84887285	     -0.29934021	      0.00000000	     -0.00000000	      0.00000000	      0.00000000	     -0.00000000	      0.00000000	      1.40322950	     -0.43591859	      0.97829482	     11.57747442	     -4.52284853	      2.36665059	     16.46131945	     -6.12746059	      2.36665059	     19.82787213	     -6.24727326	      1.86840310	      0.41280486	     -4.69402350	      1.61928650	     11.52682189	     51.68516306	      0.00000000	      0.00000000	     48.23947675	      0.04638407	      0.01546136	     29.94677576	     -3.34299504	     34.30088210	     29.93712232	    -19.02898150	     -7.38791405	     12.53219555	     -9.29528280	     81.46040423	     96.23931746	     85.07335415	     12.99106814	     24.88686147	    -38.20352150	    -35.87741127	     12.06264909	    118.89696812	     87.24075549	     11.79416053	     14.30258605
     10.11000000	     -7.68313313	    -67.86197364	     89.97149736	      0.71082008	      0.84842835	     -0.29956841	      0.00000000	     -0.00000000	      0.00000000	      0.00000000	     -0.00000000	      0.00000000	      1.40025125	     -0.43591872	      0.97829892	     11.55290210	     -4.52284994	      2.36666050	     16.42638153	     -6.12746249	      2.36666050	     19.78578895	     -6.24727520	      1.86841092	      0.41192871	     -4.69402495	      1.61929327	     11.52687013	     51.57546517	      0.00000000	      0.00000000	     48.13709207	      0.04628563	      0.01542854	     29.94651453	     -3.28485068	     34.33096209	     29.93813206	    -19.16156571	     -7.20187549	     12.14946137	     -8.74511259	     82.30023715	     94.47544321	     85.25447709	     12.99762101	     24.52482538	    -37.19777736	    -35.29898270	     13.13427351	    117.02988960	     87.42390207	     11.81704887	     14.15893506
